----------------------------------------------------------------------------
** PLEASE BE ADVICED: DO NOT DOWNLOAD THIS IF YOU CAN'T SPEAK/READ GREEK **
----------------------------------------------------------------------------

General
Complete name                            : Goodbye.Bafana.2007.DVDRip.720p.x264-GRRiPS.mp4
Format                                   : MPEG-4
Format profile                           : Base Media
Codec ID                                 : isom
File size                                : 699 MiB
Duration                                 : 1h 53mn
Overall bit rate mode                    : Variable
Overall bit rate                         : 864 Kbps

Video
ID                                       : 1
Format                                   : AVC
Format/Info                              : Advanced Video Codec
Format profile                           : High@L4.0
Format settings, CABAC                   : Yes
Format settings, ReFrames                : 3 frames
Codec ID                                 : avc1
Codec ID/Info                            : Advanced Video Coding
Duration                                 : 1h 53mn
Bit rate mode                            : Variable
Bit rate                                 : 733 Kbps
Maximum bit rate                         : 25.0 Mbps
Width                                    : 1 280 pixels
Height                                   : 720 pixels
Display aspect ratio                     : 16:9
Frame rate mode                          : Constant
Frame rate                               : 25.000 fps
Color space                              : YUV
Chroma subsampling                       : 4:2:0
Bit depth                                : 8 bits
Scan type                                : Progressive
Bits/(Pixel*Frame)                       : 0.032
Stream size                              : 592 MiB (85%)
Writing library                          : x264 core 129 r2245 bc13772

Audio
ID                                       : 2
Format                                   : AAC
Format/Info                              : Advanced Audio Codec
Format profile                           : LC
Codec ID                                 : 40
Duration                                 : 1h 53mn
Bit rate mode                            : Variable
Bit rate                                 : 128 Kbps
Maximum bit rate                         : 134 Kbps
Channel(s)                               : 2 channels
Channel positions                        : Front: L R
Sampling rate                            : 48.0 KHz
Compression mode                         : Lossy
Stream size                              : 104 MiB (15%)

DIKO MOU RIP.

APO EDW MPOREITE NA TO  KATEBASETE APO HOSTER, AN DEN 8ELETE NA PERIMENE TORRENT 'H EXEI XAMILI TAXITHTA! :D
(APO TA LINK, DIAGRAPSTE TA KENA ALLIWS DEN ANNOIGEI H SELIDA)

EPILOGH 1: a d  f.l y/ Py 14Z
EPILOGh 2: a d f.l y/ Py 1l1

FULL SCREENSHOTS: 
http://bayimg.com/mANldaaEA

KALH PROBOLH KAI S E E D ! ! ! !